<!-- Generated by IcoMoon.io -->
<svg version="1.1" xmlns="http://www.w3.org/2000/svg" width="32" height="32" viewBox="0 0 32 32">
<title>board</title>
<path d="M15.667 21.313c-0.747-0.947-1.4-1.413-3.020-1.573-0.293-0.053-0.507-0.307-0.507-0.607 0-0.22 0.72-0.88 0.713-0.887 0.747-0.754 1.147-1.974 1.147-2.914 0-1.459-1.293-2.667-3-2.667-1.74 0-3 1.207-3 2.667 0 0.947 0.393 2.173 1.14 2.927 0 0 0.72 0.653 0.72 0.873 0 0.313-0.24 0.58-0.56 0.62-1.587 0.16-2.227 0.627-2.967 1.56-0.207 0.273-0.327 0.813-0.333 1.1v1.253c0 0.553 0.459 1 1.027 1h7.947c0.567 0 1.027-0.447 1.027-1v-1.253c-0.007-0.288-0.121-0.827-0.333-1.101zM23.667 14h-3.333c-0.92 0-1.667 0.747-1.667 1.667s0.747 1.667 1.667 1.667h3.333c0.92 0 1.667-0.747 1.667-1.667s-0.747-1.667-1.667-1.667zM23.667 20h-3.333c-0.92 0-1.667 0.747-1.667 1.667s0.747 1.667 1.667 1.667h3.333c0.92 0 1.667-0.747 1.667-1.667s-0.747-1.667-1.667-1.667zM0 28c0 1.473 1.193 2.667 2.667 2.667h26.667c1.473 0 2.667-1.193 2.667-2.667l-0-21.333c0-1.473-1.193-2.667-2.667-2.667h-8v-1.2c0-0.813-0.653-1.467-1.467-1.467h-7.733c-0.813 0-1.467 0.653-1.467 1.467v1.2h-8c-1.473 0-2.667 1.193-2.667 2.667v21.333zM4.8 7.333h5.867v1.2c0 0.813 0.653 1.467 1.467 1.467h7.733c0.813 0 1.467-0.653 1.467-1.467l-0-1.2h5.867c0.813 0 1.467 0.653 1.467 1.467v17.067c0 0.813-0.653 1.467-1.467 1.467l-22.4-0c-0.813 0-1.467-0.653-1.467-1.467v-17.067c0-0.813 0.653-1.467 1.467-1.467z"></path>
</svg>
