<!-- Generated by IcoMoon.io -->
<svg version="1.1" xmlns="http://www.w3.org/2000/svg" width="32" height="32" viewBox="0 0 32 32">
<title>cloudflare</title>
<path fill="#f38020" d="M22.012 22.46c0.197-0.675 0.122-1.294-0.206-1.754-0.3-0.422-0.807-0.666-1.416-0.694l-11.545-0.151c-0.075 0-0.141-0.035-0.178-0.095-0.037-0.056-0.047-0.131-0.028-0.207 0.037-0.111 0.15-0.198 0.272-0.207l11.648-0.151c1.379-0.065 2.879-1.182 3.405-2.551l0.666-1.735c0.028-0.075 0.037-0.151 0.019-0.224-0.75-3.395-3.78-5.927-7.4-5.927-3.339 0-6.171 2.157-7.184 5.149-0.657-0.488-1.491-0.75-2.392-0.666-1.604 0.159-2.889 1.444-3.048 3.048-0.038 0.413-0.010 0.816 0.084 1.191-2.617 0.075-4.708 2.213-4.708 4.849 0 0.234 0.019 0.469 0.047 0.703 0.019 0.111 0.113 0.198 0.225 0.198h21.308c0.122 0 0.235-0.086 0.272-0.207z"></path>
<path fill="#f38020" d="M25.688 15.041c-0.103 0-0.216 0-0.319 0.015-0.075 0-0.141 0.056-0.169 0.131l-0.45 1.566c-0.197 0.675-0.122 1.294 0.206 1.754 0.3 0.422 0.807 0.666 1.416 0.694l2.457 0.151c0.075 0 0.141 0.035 0.178 0.095 0.037 0.056 0.047 0.142 0.028 0.207-0.037 0.112-0.15 0.198-0.272 0.207l-2.56 0.151c-1.388 0.065-2.879 1.182-3.404 2.551l-0.188 0.478c-0.037 0.095 0.028 0.188 0.131 0.188h8.797c0.103 0 0.197-0.065 0.225-0.167 0.15-0.544 0.234-1.116 0.234-1.707 0-3.47-2.832-6.303-6.312-6.303z"></path>
</svg>
