<!-- Generated by IcoMoon.io -->
<svg version="1.1" xmlns="http://www.w3.org/2000/svg" width="32" height="32" viewBox="0 0 32 32">
<title>codeschool</title>
<path fill="#4cadc0" d="M16.004 29.109c-7.251 0-13.129-5.88-13.129-13.125 0-7.251 5.88-13.125 13.129-13.125 7.247 0 13.123 5.875 13.123 13.125 0 7.248-5.859 13.125-13.123 13.125zM16.004 0c-8.837 0-16.004 7.168-16.004 16s7.169 16 16.004 16c8.829 0 15.996-7.168 15.996-16s-7.151-16.016-15.996-16zM14.271 20.392l-4.671-4.392 4.671-4.409v-4.111l-9.013 8.52 9.013 8.507v-4.115zM17.751 7.479v4.093l4.663 4.428-4.669 4.392v4.115l9.016-8.507-9.017-8.52z"></path>
</svg>
