<!-- Generated by IcoMoon.io -->
<svg version="1.1" xmlns="http://www.w3.org/2000/svg" width="22" height="32" viewBox="0 0 22 32">
<title>curse</title>
<path d="M17.464 0c-3.007 0.001-5.454 1.607-5.454 1.607v0c-4.326 2.917-1.443 7.16-1.081 7.806v0c0.338 0.598 0.108 1.866-1.107 1.945v0c-1.833 0.12-2.191-2.755-2.191-2.755v0c-1.347 1.41-0.993 3.951 1.046 5.689v0c1.264 1.080 1.297 2.718 0.866 4.219v0c-0.23 0.796-0.667 1.55-1.333 2.037v0c-1.424 1.042-3.281 0.353-4.154-1.046v0c-1.414-2.267 0.058-4.486 0.058-4.486v0c-2.221 0.857-3.359 2.156-3.823 3.569v0-0.008c0 0-0.009 0.029-0.024 0.077v0c-0.047 0.147-0.105 0.406-0.138 0.556v0c0.010 0.115-0.026 0.209-0.014 0.308v0c0 0.003-0.009 0.134-0.009 0.134v0c0.016 0.118 0.020 0.23 0.036 0.322v0c0.779 3.865 6.184 4.309 9.561 6.45v0c0.024 0.014 0.044 0.029 0.068 0.044v0l0.956 0.697c-0.79-2.11-0.763-5.063 0.17-6.646v0c0.32-0.547 0.72-0.993 1.063-1.408v0c0 0 0.133-0.174 0.402-0.45v0c0.401-0.426 0.771-0.794 1.179-1.090v0c0.587-0.448 1.315-0.968 2.225-1.392v0c-0.457-0.085-0.977-0.422-1.18-0.875v0c-0.297-0.685-0.091-1.519 0.414-2.053v0c0.443-0.469 1.033-0.578 1.639-0.362v0c-0.303-1.771-1.48-2.877-2.354-4.185v0c-1.144-1.7-1.745-3.668-1.010-5.543v0c0.016-0.039 0.033-0.077 0.049-0.116v0c0.692-1.643 2.695-2.757 4.438-3.040v0c-0.1-0.003-0.198-0.005-0.297-0.005z"></path>
<path d="M16.453 16.050c-0.087 0.041-0.178 0.074-0.271 0.092v0c-0.16 0.036-0.316 0.044-0.474 0.025v0c-0.91 0.425-1.665 0.907-2.253 1.355v0c-0.408 0.296-0.815 0.649-1.216 1.075v0c-0.269 0.276-0.402 0.45-0.402 0.45v0c-0.343 0.415-0.681 0.889-1.002 1.436v0c-0.933 1.582-0.969 4.455-0.18 6.565v0l-0.865-0.654c-0.024-0.016-0.044-0.030-0.068-0.044v0c-3.378-2.142-8.728-2.636-9.506-6.501v0c-0.016-0.092-0.035-0.194-0.052-0.313v0c0 0-0.002-0.002-0.002-0.005v0c-0.012-0.099-0.023-0.206-0.033-0.321v0c-0.025 0.115-0.042 0.229-0.057 0.342v0c-0.010 0.081-0.018 0.165-0.026 0.247v0c-0.162 1.446-0.019 3.922 2.163 5.984v0c3.205 3.027 5.633 2.816 6.962 3.154v0c1.322 0.34 2.54 1.093 3.408 3.062v0c0 0 0.567-1.13 1.362-1.67v0c1.283-0.879 3.278-0.862 5.095-2.046v0c1.817-1.184 3.301-4.204 2.318-6.997v0c-1.057-3.017-2.635-3.868-2.635-3.868v0c0.794 1.173 0.963 2.822 0.376 4.129v0c-0.455 1.025-2.163 2.39-3.040 1.065v0c-0.29-0.435-0.33-0.994-0.24-1.509v0c0.088-0.488 0.204-0.976 0.418-1.426v0c0.221-0.458 0.567-0.945 0.862-1.348v0c0.387-0.538 0.651-1.191 0.755-1.845v0c0.089-0.555 0.035-1.77-0.509-2.132v0c0.188 0.669-0.273 1.412-0.89 1.697z"></path>
</svg>
