<!-- Generated by IcoMoon.io -->
<svg version="1.1" xmlns="http://www.w3.org/2000/svg" width="32" height="32" viewBox="0 0 32 32">
<title>eventbrite</title>
<path fill="#f6682f" d="M10.837 0h14.681c0.235 0 0.352 0.12 0.352 0.356v5.499c0 0.24-0.12 0.356-0.352 0.356h-12.956c-0.236 0-0.353 0.12-0.353 0.36v5.988c0.060 0.24 0.18 0.36 0.355 0.36h11.489c0.239 0 0.359 0.12 0.359 0.36v5.309c0 0.24-0.12 0.36-0.359 0.36h-11.481c-0.179 0-0.295 0.12-0.355 0.36v6.025c0 0.239 0.12 0.359 0.353 0.359h13.395c0.18 0 0.299 0.1 0.36 0.28 0.080 0.3 0.139 0.659 0.159 1.116 0.020 0.461-0.020 0.96-0.159 1.539s-0.38 1.116-0.72 1.596c-0.339 0.499-0.897 0.919-1.656 1.259-0.78 0.339-1.717 0.519-2.795 0.519h-15.289c-0.237 0-0.355-0.121-0.355-0.359v-26.312c0-1.476 0.519-2.736 1.552-3.772 1.039-1.039 2.293-1.557 3.775-1.557z"></path>
</svg>
