<!-- Generated by IcoMoon.io -->
<svg version="1.1" xmlns="http://www.w3.org/2000/svg" width="32" height="32" viewBox="0 0 32 32">
<title>evernote</title>
<path fill="#2dbd60" d="M22.651 15.184c-0.432-0.015-0.849 0.012-1.24 0.075 0.101-0.883 0.461-1.967 1.765-1.925 1.424 0.051 1.625 1.405 1.625 2.32-0.601-0.268-1.364-0.441-2.167-0.469zM28.755 5.585c-0.24-1.284-1.005-1.913-1.685-2.161-0.743-0.268-2.248-0.547-4.153-0.771-1.527-0.18-3.309-0.164-4.393-0.131-0.12-0.888-0.74-1.7-1.443-1.981-1.845-0.748-4.715-0.568-5.452-0.361-0.583 0.164-1.232 0.503-1.591 1.017-0.243 0.344-0.403 0.787-0.403 1.404 0 0.352 0 1.176 0.020 1.907l0.020 1.399c0 0.653-0.541 1.185-1.203 1.185h-3.011c-0.641 0-1.143 0.109-1.524 0.279-0.381 0.171-0.643 0.401-0.843 0.671-0.401 0.524-0.483 1.207-0.483 1.888 0 0 0 0.54 0.14 1.624 0.1 0.823 1.003 6.641 1.865 8.408 0.341 0.683 0.561 0.964 1.204 1.263 1.464 0.623 4.795 1.305 6.339 1.505 1.565 0.2 2.549 0.601 3.131-0.601 0-0.021 0.101-0.32 0.261-0.763 0.501-1.544 0.561-2.888 0.561-3.872 0-0.099 0.14-0.099 0.14 0 0 0.683-0.14 3.151 1.705 3.812 0.721 0.26 2.248 0.481 3.792 0.663 1.385 0.16 2.409 0.701 2.409 4.293 0 2.167-0.464 2.467-2.849 2.467-1.948 0-2.691 0.041-2.691-1.481 0-1.245 1.224-1.123 2.148-1.123 0.401 0 0.099-0.303 0.099-1.085 0-0.763 0.461-1.203 0.021-1.224-3.172-0.099-5.016 0-5.016 3.932 0 3.573 1.365 4.255 5.839 4.255 3.511 0 4.755-0.123 6.197-4.617 0.281-0.901 0.984-3.609 1.407-8.144 0.26-2.889-0.263-11.577-0.661-13.764zM5.243 6.139h3.028c0.173 0 0.315-0.14 0.315-0.321 0 0-0.028-2.588-0.028-3.309 0-0.596 0.12-1.104 0.341-1.541l0.1-0.2c-0.012 0-0.021 0-0.032 0.021l-5.817 5.856c-0.013 0.008-0.021 0.020-0.021 0.032l0.307-0.151c0.503-0.232 1.123-0.361 1.864-0.361z"></path>
</svg>
