<!-- Generated by IcoMoon.io -->
<svg version="1.1" xmlns="http://www.w3.org/2000/svg" width="32" height="32" viewBox="0 0 32 32">
<title>feedly</title>
<path fill="#2bb24c" d="M9.861 29.243l-9.035-9.099c-1.1-1.099-1.1-3.479 0-4.52l12.945-13.003c1.041-1.040 3.361-1.040 4.396 0l13.008 13.004c1.101 1.1 1.101 3.481 0 4.521l-9.039 9.099c-0.548 0.547-1.404 0.915-2.26 0.915h-7.877c-0.795-0.001-1.587-0.368-2.139-0.917zM18.107 25.701c0.183-0.184 0.183-0.551 0-0.733l-1.771-1.771c-0.184-0.2-0.549-0.2-0.732 0l-1.772 1.759c-0.184 0.179-0.184 0.54 0 0.72l1.405 1.34h1.465l1.42-1.36-0.016 0.045zM18.107 18.191c0.123-0.12 0.123-0.427 0-0.549l-1.893-1.879c-0.12-0.121-0.427-0.121-0.549 0l-5.495 5.499c-0.185 0.2-0.185 0.62 0 0.801l1.279 1.28h1.469l5.191-5.14v-0.012zM18.107 10.741c0.123-0.121 0.183-0.488 0-0.611l-1.833-1.832c-0.12-0.139-0.487-0.139-0.669 0l-9.219 9.22c-0.125 0.12-0.187 0.479-0.065 0.599l1.467 1.4h1.404l8.916-8.776z"></path>
</svg>
