<!-- Generated by IcoMoon.io -->
<svg version="1.1" xmlns="http://www.w3.org/2000/svg" width="32" height="32" viewBox="0 0 32 32">
<title>goldenline</title>
<path fill="#fbbf00" d="M21.836 28.877c0 1.633-1.319 2.953-2.949 2.953-1.632 0-2.956-1.32-2.956-2.953 0-1.631 1.324-2.953 2.956-2.953 1.631 0 2.951 1.324 2.949 2.953zM15.549 28.648l-6.923 1.619s-0.383 0.107-0.523-0.287c-0.080-0.241 0.121-0.531 0.121-0.531l6.951-11.352s0.356-0.536 1.027-0.732c0.557-0.161 1.163 0.213 1.163 0.213l11.135 7.004s0.483 0.196 0.464 0.584c-0.020 0.391-0.444 0.457-0.444 0.457l-6.72 1.571c-0.568-0.992-1.64-1.659-2.875-1.659-1.76 0-3.217 1.376-3.339 3.113h-0.037zM5.197 9.729l2.017-7.017s0.096-0.404 0.508-0.323c0.248 0.041 0.404 0.364 0.404 0.364l6.519 11.597s0.297 0.567 0.141 1.255c-0.132 0.567-0.756 0.911-0.756 0.911l-11.545 6.297s-0.409 0.324-0.729 0.112c-0.323-0.217-0.181-0.617-0.181-0.617l1.963-6.821c1.569-0.275 2.761-1.644 2.761-3.293 0-0.984-0.425-1.861-1.101-2.479v0.015zM5.907 12.207c0 1.633-1.319 2.957-2.952 2.957-1.628 0-2.955-1.324-2.955-2.957 0-1.628 1.327-2.951 2.955-2.951 1.633 0 2.956 1.323 2.956 2.951h-0.004zM26.795 9.895l5.080 5.573s0.281 0.283 0.004 0.593c-0.165 0.188-0.525 0.148-0.525 0.148l-13.299-0.527s-0.637-0.047-1.137-0.536c-0.413-0.404-0.376-1.117-0.376-1.117l0.68-13.136s-0.067-0.519 0.283-0.681c0.36-0.163 0.623 0.172 0.623 0.172l4.424 4.837c-0.251 0.467-0.391 0.992-0.391 1.56 0 1.841 1.497 3.339 3.345 3.339 0.455 0 0.889-0.1 1.285-0.263l0.004 0.037zM28.461 6.805c0 1.639-1.315 2.956-2.949 2.956-1.632 0-2.956-1.316-2.956-2.956 0-1.62 1.324-2.935 2.956-2.935 1.631 0 2.951 1.336 2.951 2.956l-0.001-0.021z"></path>
</svg>
