<!-- Generated by IcoMoon.io -->
<svg version="1.1" xmlns="http://www.w3.org/2000/svg" width="32" height="32" viewBox="0 0 32 32">
<title>googleplus</title>
<path fill="#dc4e41" d="M10.18 14.545v3.492h5.78c-0.231 1.5-1.747 4.393-5.775 4.393-3.472 0-6.308-2.88-6.308-6.431 0-3.549 2.829-6.429 6.304-6.429 1.98 0 3.305 0.844 4.060 1.571l2.764-2.659c-1.773-1.66-4.075-2.66-6.82-2.66-5.636-0.003-10.185 4.557-10.185 10.177s4.552 10.18 10.18 10.18c5.88 0 9.776-4.131 9.776-9.948 0-0.668-0.072-1.18-0.16-1.687h-9.616zM32 14.545h-2.911v-2.911h-2.911v2.911h-2.909v2.908h2.912v2.912h2.919v-2.912h2.9z"></path>
</svg>
