<!-- Generated by IcoMoon.io -->
<svg version="1.1" xmlns="http://www.w3.org/2000/svg" width="32" height="32" viewBox="0 0 32 32">
<title>googleallo</title>
<path fill="#ecb842" d="M15.553 0.007c-0.936 0.024-1.889 0.131-2.853 0.324-6.316 1.26-11.26 6.301-12.42 12.64-1.813 9.875 5.461 19.008 14.88 19.008l14.476 0.021c1.307 0 2.365-1.057 2.365-2.365v-13.635c-0.001-8.987-7.408-16.24-16.448-15.993zM16 8.18c4.317 0 7.816 3.501 7.816 7.82v7.48c0 0.327-0.391 0.489-0.623 0.259l-1.947-1.947c-1.387 1.259-3.227 2.027-5.248 2.027-4.32 0-7.82-3.501-7.82-7.819 0-4.32 3.503-7.82 7.82-7.82z"></path>
</svg>
