<!-- Generated by IcoMoon.io -->
<svg version="1.1" xmlns="http://www.w3.org/2000/svg" width="32" height="32" viewBox="0 0 32 32">
<title>launchpad</title>
<path fill="#f8c300" d="M29.332 24.901l-5.909-3.408-6.377 3.685v6.821l12.287-7.099zM14.955 32v-6.825l-6.38-3.683-5.907 3.409 12.287 7.099zM15.993 23.367l6.385-3.687v-7.365l-6.38-3.68-6.377 3.68v7.369l6.372 3.683zM1.627 8.909v14.188l5.909-3.412v-7.367l-5.909-3.409zM27.78 10.404l-3.312 1.915v7.363l5.907 3.412v-14.189l-2.595 1.5zM2.668 7.099l5.913 3.412 6.375-3.683v-6.824l-12.288 7.095zM23.423 10.511l5.912-3.412-12.292-7.099v6.828l6.38 3.683z"></path>
</svg>
