<!-- Generated by IcoMoon.io -->
<svg version="1.1" xmlns="http://www.w3.org/2000/svg" width="32" height="32" viewBox="0 0 32 32">
<title>mailchimp</title>
<path fill="#239ab9" d="M14.701 2.472l0.432 0.14-0.349-1.267-0.204 0.629 0.12 0.496zM15.409 3.793c0.137-0.103 0.3-0.223 0.484-0.353h0.023l-1.48-0.448 0.96 0.813 0.013-0.013zM14.32 4.747l-0.141 0.123 0.157-0.107-0.016-0.013zM14.836 4.32l-2.32-1.92 0.12 0.861 1.684 1.485c0.067-0.053 0.129-0.115 0.196-0.165l0.32-0.26zM16.632 2.94l-0.712-0.596 0.26 0.9c0.14-0.1 0.293-0.2 0.453-0.304zM7.256 18.915c0.52 0.003 0.9 0.256 1.080 0.517 0.16 0.24 0.1 0.381 0.18 0.449 0.020 0.017 0.040 0.027 0.060 0.027s0.040-0.003 0.040-0.009c0.1-0.040 0.14-0.193 0.16-0.3 0.020-0.257-0.12-0.547-0.3-0.751-0.347-0.371-0.833-0.58-1.34-0.571h-0.020c-0.26 0-0.48 0.045-0.56 0.069-0.040 0.013-0.12 0.029-0.18 0.049-1.020 0.4-1.48 1.4-1.26 2.4 0.044 0.253 0.155 0.493 0.32 0.691 0.1 0.104 0.2 0.151 0.26 0.151 0.080 0 0.12-0.067 0.060-0.18-0.020-0.057-0.16-0.297-0.18-0.733-0.016-0.443 0.085-0.907 0.373-1.259 0.211-0.261 0.471-0.376 0.5-0.389l0.007 0.008 0.115-0.060 0.053-0.023c0.129-0.040 0.056-0.024 0.189-0.048h0.040c0.117-0.027 0.24-0.040 0.36-0.040h0.043zM18.616 15.457c0.351 0.008 0.696 0.083 1.020 0.22 0.221 0.080 0.4 0.16 0.48 0.16 0.040 0 0.060-0.021 0.060-0.021 0.040-0.032 0.020-0.107-0.060-0.205-0.18-0.26-0.52-0.488-0.84-0.6-0.231-0.085-0.473-0.125-0.715-0.125l0.036-0.048c-0.5 0-1 0.18-1.4 0.5-0.301 0.24-0.42 0.5-0.301 0.52h0.023c0.099 0 0.259-0.060 0.48-0.14 0.48-0.18 0.859-0.26 1.2-0.26h0.020zM23.109 14.429c0.355-0.032 0.711 0.031 1.031 0.187-0.020-0.88-0.533-1.869-0.92-1.733-0.227 0.080-0.267 0.48-0.259 0.72 0.013 0.297 0.053 0.56 0.149 0.84v-0.013z"></path>
<path fill="#239ab9" d="M7.929 20.168c-0.059-0.040-0.101-0.103-0.12-0.173-0.027-0.131-0.013-0.203 0.1-0.283 0.087-0.060 0.157-0.088 0.157-0.124 0-0.032-0.073-0.073-0.173-0.073l0.023-0.057c-0.12 0.004-0.236 0.053-0.32 0.141-0.16 0.179-0.22 0.539 0.040 0.84 0.299 0.32 0.76 0.4 0.819 0.8 0.013 0.067 0.019 0.133 0.013 0.2 0 0.060-0.023 0.16-0.023 0.18-0.080 0.34-0.381 0.68-0.875 0.68h-0.189c-0.064-0.020-0.111-0.020-0.151-0.020-0.027 0-0.048 0-0.056 0.021-0.045 0.060 0.204 0.36 0.664 0.36h0.027c0.68-0.021 1.24-0.72 1.107-1.48-0.12-0.671-0.791-0.813-1.040-1.011zM19.912 16.568h0.021c0.069 0 0.109-0.013 0.129-0.040 0.053-0.089-0.301-0.376-0.819-0.376l-0.071 0.027c-0.080 0-0.16 0-0.24 0.021l-0.22 0.060c-0.040 0-0.060 0.020-0.080 0.020-0.16 0.060-0.301 0.14-0.42 0.26-0.139 0.16-0.2 0.3-0.139 0.32h0.019c0.061 0 0.14-0.040 0.28-0.093 0.423-0.183 0.884-0.253 1.341-0.211 0.077 0.004 0.137 0.013 0.197 0.013zM23.797 15.736c-0.040 0.26 0.080 0.48 0.259 0.52 0.020 0 0.040 0.020 0.040 0.020 0.18 0 0.32-0.173 0.36-0.407 0.040-0.253-0.080-0.483-0.28-0.511-0.013-0.005-0.024-0.005-0.035-0.005l0.035-0.040c-0.18 0-0.34 0.181-0.379 0.421zM22.427 16.68c0.096 0.056 0.204 0.085 0.315 0.085 0.143 0 0.267-0.060 0.327-0.167 0.107-0.187-0.021-0.447-0.273-0.587-0.101-0.056-0.213-0.085-0.312-0.085l-0.009 0.013c-0.139 0-0.259 0.059-0.32 0.16-0.099 0.18 0.024 0.46 0.276 0.58z"></path>
<path fill="#239ab9" d="M31.173 20.836h0.020c-0.227-0.472-0.656-0.811-1.167-0.92-0.177-0.804-0.42-1.2-0.44-1.259 0.093-0.104 0.18-0.211 0.2-0.235 0.747-0.92 0.259-2.26-1.013-2.581-0.716-0.68-1.364-1-1.896-1.28-0.511-0.24-0.307-0.139-0.784-0.36-0.128-0.619-0.169-2.059-0.373-3.080-0.179-0.899-0.547-1.56-1.111-2-0.227-0.48-0.54-0.979-0.924-1.339 1.776-2.72 2.24-5.4 0.94-6.8-0.572-0.681-1.433-0.983-2.461-0.983-1.453 0-3.232 0.591-5.032 1.68l-1.189-0.96c-5.005-3.94-19.163 13.48-14.165 17.287l1.291 0.987c-0.809 2.251 0.317 4.939 2.667 5.8 0.499 0.192 1.080 0.283 1.659 0.251 0 0 3.78 6.953 11.78 6.956 9.24 0 11.6-9.053 11.64-9.133 0 0 0.739-1.109 0.36-2.031zM2.151 16.853h0.009c-1.013-1.713 0.753-5.229 2.009-7.227 3.1-4.941 8.267-8.837 10.613-8.28l0.647-0.248 1.764 1.491c1.213-0.731 2.756-1.471 4.2-1.617-0.88 0.195-1.949 0.653-3.22 1.427-0.027 0.020-3 2.040-4.813 3.84-0.991 0.98-4.96 5.74-4.96 5.74 0.728-1.36 1.205-2.040 2.356-3.48 0.66-0.82 1.36-1.6 2.060-2.34 0.34-0.34 0.66-0.66 1-0.98 0.124-0.104 0.244-0.204 0.363-0.311-0.393 0.272-1.48 1.029-2.083 1.533-3.023 2.497-5.943 6.399-7.043 10.199h0.053c-0.547 0.3-1.080 0.78-1.555 1.431-0.020 0-1.22-0.888-1.4-1.179zM7.099 24c-1.787 0-3.24-1.524-3.24-3.407 0-1.88 1.453-3.409 3.24-3.409 0.467 0 0.907 0.1 1.301 0.287 0 0 0.689 0.349 0.884 1.989 0.2-0.513 0.304-0.933 0.304-0.933 0.231 0.704 0.347 1.447 0.301 2.2 0.193-0.259 0.4-0.739 0.4-0.739 0.352 2.099-1.173 4.013-3.189 4.013zM11.085 11.963l-0.053-0.085c0.131-0.173 0.28-0.34 0.424-0.509 0.589-0.88 1.909-2.56 4.083-3.805-0.229-0.035-0.787 0.040-0.885 0.048 0.556-0.48 1.587-0.796 2.3-0.94-0.205-0.133-0.704-0.168-0.949-0.173-0.075-0.020-0.075-0.020-0.16 0 0.672-0.38 1.917-0.6 3.048-0.4-0.16-0.2-0.48-0.34-0.7-0.4l-0.101-0.040 0.080-0.020c0.68-0.14 1.48 0 2.1 0.26-0.080-0.18-0.26-0.36-0.38-0.48l-0.1-0.080c0.66 0.14 1.28 0.42 1.76 0.74-0.080-0.12-0.24-0.34-0.34-0.46 0.62 0.18 1.32 0.62 1.64 1.26l0.020 0.060c-1.2-0.92-4.68-0.66-8.16 1.6-1.368 0.872-2.413 1.833-3.256 2.831-0.236 0.351-0.368 0.587-0.373 0.595zM29.772 22.581c-0.040 0.080-0.48 2.44-3 4.42-3.16 2.501-7.341 2.243-8.901 0.84-0.84-0.8-1.2-1.917-1.2-1.917s-0.1 0.64-0.12 0.88c-0.64-1.080-0.58-2.4-0.58-2.4s-0.341 0.619-0.48 0.979c-0.461-1.2-0.221-2.42-0.221-2.42l-0.36 0.541s-0.18-1.36 0.24-2.48c0.46-1.2 1.34-2.060 1.52-2.18-0.68-0.2-1.44-0.819-1.44-0.819s0.3 0.021 0.52-0.040c0 0-1.34-0.96-1.58-2.44 0.2 0.24 0.619 0.501 0.619 0.501-0.139-0.38-0.22-1.26-0.080-2.1 0.24-1.62 1.58-2.66 3.1-2.66 1.597 0 2.68 0.34 4.037-0.9 0.28-0.26 0.5-0.48 0.901-0.58 0.040 0 0.16-0.040 0.36-0.040 0.219-0.008 0.433 0.047 0.62 0.16 0.739 0.44 0.9 1.58 0.979 2.4 0.28 3.1 0.16 2.54 1.42 3.18 0.597 0.3 1.277 0.58 2.037 1.4v0.021c0.64 0 0.96 0.52 0.68 0.88-2.16 2.58-5.18 3.819-8.539 3.92l-0.44 0.020c-1.36 0.040-1.8 1.8-0.94 2.84 0.537 0.66 1.579 0.88 2.44 0.88 3.68 0.080 7.379-2.52 8.019-3.96l0.040-0.101c-0.14 0.18-3.72 3.54-8.060 3.42 0 0-0.48-0.020-0.92-0.12-0.581-0.14-1.040-0.4-1.2-1 0.36 0.080 0.82 0.12 1.36 0.12 3.14 0 5.4-1.44 5.18-1.46h-0.040c-0.36 0.080-4.139 1.539-6.52 0.779 0.005-0.067 0.016-0.139 0.033-0.204 0.213-0.712 0.591-0.613 1.2-0.64l-0.133 0.156c2.179-0.075 3.939-0.62 5.257-1.24 1.4-0.673 2.461-1.533 2.861-1.96 0.499 0.84 0.499 1.92 0.499 1.92s0.181-0.072 0.44-0.072c0.82 0 1 0.74 0.38 1.48z"></path>
</svg>
