<!-- Generated by IcoMoon.io -->
<svg version="1.1" xmlns="http://www.w3.org/2000/svg" width="32" height="32" viewBox="0 0 32 32">
<title>mastodon</title>
<path fill="#189efc" d="M16.016 0c-4.239 0-8.303 1.684-11.3 4.681-6.263 6.223-6.292 16.343-0.069 22.605 6.224 6.26 16.343 6.289 22.604 0.065 0.021-0.021 0.044-0.041 0.068-0.065 6.245-6.243 6.245-16.364 0-22.605-2.999-2.997-7.064-4.681-11.303-4.681zM16.016 8.951h3.421c-0.609 0.429-0.839 1.632-0.864 2.359v6.657c0 1.419-1.14 2.56-2.557 2.56-1.419 0-2.559-1.14-2.559-2.56v-6.457c-0.001-1.419 1.139-2.559 2.559-2.559zM16 10.613c-0.493 0-0.896 0.4-0.896 0.896 0 0.493 0.401 0.896 0.896 0.896s0.895-0.401 0.895-0.896-0.397-0.896-0.895-0.896zM7.081 10.867c1.417 0 2.56 1.139 2.56 2.557v6.589c0.028 0.732 0.255 1.932 0.864 2.36h-3.424c-1.417 0-2.557-1.14-2.557-2.555v-6.393c0-1.421 1.14-2.559 2.557-2.559zM24.953 10.867c1.417 0 2.557 1.139 2.557 2.557v6.393c0 1.419-1.14 2.557-2.557 2.557h-3.424c0.609-0.429 0.841-1.631 0.867-2.361v-6.589c0-1.42 1.137-2.557 2.557-2.557zM7.068 12.531c-0.497 0-0.896 0.4-0.896 0.88 0 0.479 0.399 0.887 0.88 0.887 0.479 0 0.887-0.4 0.887-0.892 0-0.495-0.4-0.897-0.893-0.897l0.023 0.023zM24.969 12.531c-0.495 0-0.896 0.4-0.896 0.88 0 0.479 0.399 0.887 0.896 0.887 0.492 0 0.893-0.4 0.893-0.892 0-0.495-0.399-0.897-0.893-0.897v0.023zM16 13.811c-0.493 0-0.896 0.4-0.896 0.879s0.401 0.9 0.896 0.9 0.895-0.4 0.895-0.9-0.397-0.899-0.895-0.899v0.020zM7.065 15.709c-0.495 0-0.893 0.4-0.893 0.9s0.399 0.899 0.88 0.899c0.479 0 0.887-0.399 0.887-0.899s-0.4-0.9-0.893-0.9h0.020zM24.969 15.709c-0.495 0-0.896 0.4-0.896 0.9s0.399 0.899 0.896 0.899c0.492 0 0.893-0.399 0.893-0.899-0.001-0.5-0.399-0.9-0.893-0.9zM16 16.989c-0.493 0-0.896 0.399-0.896 0.899s0.401 0.899 0.896 0.899 0.895-0.399 0.895-0.899-0.397-0.899-0.895-0.899zM7.065 18.909c-0.495 0-0.893 0.399-0.893 0.885 0 0.489 0.399 0.901 0.88 0.901 0.479 0 0.887-0.401 0.887-0.901s-0.4-0.893-0.893-0.893l0.020 0.008zM24.969 18.909c-0.495 0-0.896 0.399-0.896 0.885 0 0.489 0.399 0.901 0.896 0.901 0.492 0 0.893-0.401 0.893-0.901s-0.399-0.893-0.893-0.893v0.008z"></path>
</svg>
