<!-- Generated by IcoMoon.io -->
<svg version="1.1" xmlns="http://www.w3.org/2000/svg" width="32" height="32" viewBox="0 0 32 32">
<title>meetup</title>
<path fill="#ed1c40" d="M31.971 26.984c-0.405-2.575-5.165-0.592-5.461-3.412-0.417-3.997 5.533-12.612 5.063-15.963-0.417-3.007-2.455-3.64-4.22-3.675-1.712-0.027-2.164 0.243-2.744 0.58-0.337 0.195-0.816 0.58-1.483-0.055-0.445-0.424-0.743-0.715-1.207-1.092-0.243-0.189-0.621-0.432-1.26-0.527-0.635-0.095-1.464 0-1.989 0.223-0.527 0.229-0.936 0.621-1.368 0.999-0.431 0.377-1.529 1.597-2.548 1.145-0.447-0.193-1.944-0.941-3.029-1.407-2.084-0.903-5.096 0.56-6.181 2.488-1.617 2.865-4.8 14.137-5.285 15.62-1.079 3.336 1.376 6.053 4.679 5.899 1.403-0.068 2.333-0.573 3.216-2.184 0.512-0.924 5.305-13.449 5.664-14.057 0.263-0.431 1.125-1.004 1.853-0.633 0.735 0.377 0.883 1.159 0.775 1.895-0.181 1.193-3.559 8.839-3.695 9.7-0.216 1.471 0.479 2.285 2.009 2.365 1.045 0.055 2.089-0.316 2.912-1.88 0.465-0.869 5.799-11.555 6.269-12.269 0.52-0.781 0.937-1.039 1.471-1.011 0.412 0.020 1.065 0.128 0.904 1.355-0.163 1.207-4.457 9.040-4.901 10.961-0.608 2.569 0.803 5.165 3.121 6.304 1.483 0.728 7.96 1.968 7.436-1.369z"></path>
</svg>
