<!-- Generated by IcoMoon.io -->
<svg version="1.1" xmlns="http://www.w3.org/2000/svg" width="32" height="32" viewBox="0 0 32 32">
<title>newspaper</title>
<path d="M8 22h16v-8h-16v8zM9.333 15.333h13.333v5.333h-13.333v-5.333zM8 11.333h16v1.333h-16zM8 23.333h6.667v1.333h-6.667zM8 26h4v1.333h-4zM13.38 26.079h1.333v1.333h-1.333zM17.333 23.333h6.667v1.333h-6.667zM17.333 26h6.667v1.333h-6.667zM26.667 6v-1.255c0-1.545-1.331-2.745-4.62-2.745h-16c-2.205 0-3.38 1.872-3.38 4.079v22.667c0 2.205 1.175 3.921 3.38 3.921h18.667c2.205 0 1.953 0 4.62 0v-26.667h-2.667zM26.667 30h-20.62c-0.735 0-0.713-0.521-0.713-1.255v-22.667c0-0.735-0.021-1.412 0.713-1.412h17.953v1.333h-16v2.667h18.667v21.333z"></path>
</svg>
