<!-- Generated by IcoMoon.io -->
<svg version="1.1" xmlns="http://www.w3.org/2000/svg" width="32" height="32" viewBox="0 0 32 32">
<title>nintendogamecube</title>
<path fill="#6a5fbb" d="M9.087 20.171l6.272 3.62v-7.244l-6.275-3.619v7.244z"></path>
<path fill="#6a5fbb" d="M6.387 21.728l8.973 5.177v5.095l-13.387-7.724v-15.453l4.413 2.547v10.36zM16 8.195l-6.271 3.624 6.271 3.621 6.273-3.623-6.273-3.621z"></path>
<path fill="#6a5fbb" d="M16 5.084l7.547 4.367 4.413-2.547-11.96-6.904-13.369 7.72 4.409 2.543 8.96-5.179zM25.611 21.728v-5.264l-2.697 1.556v2.152l-6.272 3.62v0.007-7.248l13.385-7.724v15.451l-13.387 7.727v-5.089l8.971-5.184z"></path>
</svg>
