<!-- Generated by IcoMoon.io -->
<svg version="1.1" xmlns="http://www.w3.org/2000/svg" width="32" height="32" viewBox="0 0 32 32">
<title>plurk</title>
<path fill="#e9443d" d="M15.012 31.989c-0.724-0.065-1.44-0.153-1.899-0.24-2.741-0.505-5.276-1.705-7.453-3.527-0.456-0.377-1.497-1.421-1.888-1.88-2.071-2.472-3.307-5.343-3.697-8.588-0.099-0.832-0.099-2.685 0-3.52 0.445-3.713 2.007-6.937 4.612-9.547 2.609-2.607 5.841-4.167 9.555-4.612 0.833-0.101 2.689-0.101 3.519 0 3.248 0.387 6.108 1.62 8.585 3.7 0.459 0.38 1.5 1.424 1.884 1.88 2.080 2.484 3.321 5.36 3.7 8.58 0.052 0.444 0.071 0.895 0.071 1.759 0 0.869-0.020 1.32-0.071 1.76-0.379 3.235-1.608 6.079-3.7 8.584-0.38 0.456-1.425 1.5-1.884 1.883-2.495 2.079-5.369 3.323-8.543 3.693-0.52 0.060-2.38 0.109-2.788 0.073l-0.003 0.001zM12.42 28.076c0.74-0.128 1.521-0.44 2.159-0.867 0.364-0.243 1.155-1.019 1.38-1.36 0.451-0.667 0.748-1.508 0.8-2.26l0.013-0.14 0.615-0.027c2.443-0.107 4.535-0.828 6.347-2.185 2.152-1.612 3.465-3.709 3.844-6.149 0.1-0.631 0.1-2.015 0-2.639-0.309-1.976-1.255-3.761-2.759-5.207-1.797-1.725-3.98-2.747-6.525-3.048-0.721-0.088-2.133-0.088-2.867 0-1.869 0.219-3.487 0.8-4.943 1.765-2.397 1.591-3.873 3.759-4.311 6.32-0.129 0.748-0.145 1.704-0.133 6.639l0.016 4.844 0.091 0.399c0.483 2.161 2.327 3.727 4.672 3.981 0.396 0.039 1.164 0.008 1.599-0.068h0.003zM10.92 25.533c-1.196-0.195-2.099-1.024-2.24-2.044-0.027-0.216-0.036-1.929-0.027-5.377 0.013-4.955 0.020-5.069 0.099-5.495 0.119-0.604 0.288-1.107 0.567-1.66 0.319-0.649 0.68-1.137 1.26-1.724 1.404-1.407 3.059-2.199 5.125-2.455 0.505-0.064 1.828-0.064 2.312 0 0.207 0.024 0.596 0.091 0.864 0.143 2.521 0.508 4.785 2.273 5.719 4.461 0.551 1.289 0.601 2.996 0.137 4.395-0.56 1.676-1.989 3.231-3.815 4.139-0.736 0.371-1.48 0.612-2.429 0.787-0.415 0.081-0.628 0.085-2.384 0.104l-1.928 0.021v1.268c0 1.773-0.051 1.979-0.668 2.601-0.38 0.38-0.76 0.604-1.268 0.745-0.327 0.093-1.005 0.136-1.32 0.085l-0.004 0.005zM17.671 15.967c1.787-0.493 2.459-2.333 1.32-3.593-0.841-0.931-2.255-1.192-3.405-0.628-0.699 0.345-1.18 0.88-1.344 1.513-0.045 0.18-0.061 0.5-0.061 1.527v1.3l1.596-0.013c1.469-0.016 1.615-0.021 1.893-0.101v-0.004z"></path>
</svg>
