<!-- Generated by IcoMoon.io -->
<svg version="1.1" xmlns="http://www.w3.org/2000/svg" width="32" height="32" viewBox="0 0 32 32">
<title>protonmail</title>
<path fill="#8b89cc" d="M16 27.136s-1.461-0.144-2.607-0.94c-1.147-0.795-8.773-6.251-8.773-6.251v10.797s0.064 1.257 1.447 1.257h19.867c1.381 0 1.447-1.256 1.447-1.256v-10.8s-7.631 5.456-8.773 6.253c-1.147 0.793-2.607 0.939-2.607 0.939z"></path>
<path fill="#8b89cc" d="M16 0.003s-9.433-0.309-11.38 10.163v7.133s0.080 0.763 2.227 2.313c2.143 1.549 7.697 5.915 9.156 5.915 1.451 0 7.005-4.364 9.153-5.916 2.143-1.552 2.224-2.316 2.224-2.316v-7.133c-1.947-10.465-11.38-10.156-11.38-10.156zM22.461 14.051h-12.92v-3.885c1.312-5.2 6.459-5.272 6.459-5.272s5.151 0.072 6.461 5.272v3.885z"></path>
</svg>
