<!-- Generated by IcoMoon.io -->
<svg version="1.1" xmlns="http://www.w3.org/2000/svg" width="32" height="32" viewBox="0 0 32 32">
<title>slack</title>
<path fill="#56b68b" d="M13.172 14.66l1.38 4.113 4.273-1.432-1.38-4.099-4.273 1.44v-0.023z"></path>
<path fill="#56b68b" d="M25.099 18.74l-2.073 0.695 0.72 2.147c0.291 0.867-0.18 1.807-1.048 2.099-0.2 0.060-0.38 0.089-0.58 0.084-0.681-0.020-1.301-0.451-1.54-1.132l-0.72-2.143-4.28 1.431 0.719 2.144c0.281 0.869-0.18 1.811-1.059 2.1-0.2 0.064-0.38 0.089-0.58 0.085-0.68-0.020-1.301-0.453-1.541-1.133l-0.719-2.159-2.081 0.699c-0.2 0.060-0.38 0.081-0.58 0.081-0.681-0.021-1.301-0.46-1.54-1.14-0.3-0.88 0.18-1.819 1.040-2.1l2.080-0.7-1.316-4.117-2.068 0.7c-0.188 0.064-0.38 0.088-0.571 0.085-0.66-0.021-1.3-0.451-1.521-1.131-0.279-0.867 0.18-1.805 1.061-2.099l2.080-0.693-0.72-2.14c-0.28-0.872 0.181-1.812 1.061-2.1 0.879-0.293 1.817 0.181 2.099 1.044l0.719 2.144 4.26-1.432-0.72-2.14c-0.279-0.86 0.18-1.8 1.052-2.099 0.869-0.281 1.812 0.18 2.1 1.055l0.72 2.161 2.073-0.68c0.868-0.292 1.808 0.18 2.1 1.039 0.291 0.872-0.18 1.812-1.045 2.1l-2.076 0.699 1.38 4.115 2.068-0.688c0.869-0.281 1.811 0.18 2.1 1.060 0.293 0.88-0.18 1.82-1.039 2.099l-0.015-0.039zM30.66 11.599c-3.3-10.991-8.065-13.56-19.061-10.259-10.991 3.299-13.56 8.061-10.259 19.061 3.3 10.993 8.061 13.56 19.061 10.259 10.993-3.3 13.56-8.061 10.259-19.061z"></path>
</svg>
