<!-- Generated by IcoMoon.io -->
<svg version="1.1" xmlns="http://www.w3.org/2000/svg" width="32" height="32" viewBox="0 0 32 32">
<title>spotlight</title>
<path fill="#352a71" d="M15.4 10.88c0.54 0.509 1.267 0.781 2.009 0.76 0.716 0 1.4-0.293 1.893-0.82 0.52-0.467 0.821-1.133 0.84-1.836v-0.397c-0.077-1.551-1.4-2.743-2.949-2.664-0.017 0-0.035 0-0.053 0.003-0.684 0.027-1.331 0.324-1.803 0.821-0.64 0.591-0.96 1.453-0.861 2.32 0.040 0.7 0.36 1.355 0.88 1.813h0.044zM9.109 9.437h0.021c0.084 0.733 0.112 1.556 0.196 2.177 0.821-0.34 1.303-1.016 1.387-2.061 0.027-0.32 0.027-0.64 0-0.96-0.056-0.597-0.168-1.133-0.791-1.104-0.2 0.021-0.393 0.087-0.565 0.195-0.152 0.064-0.28 0.173-0.368 0.312-0.013 0.104-0.007 0.209 0.020 0.311 0.020 0.424 0.080 0.816 0.1 1.131z"></path>
<path fill="#352a71" d="M31.437 13.68l0.088 0.111-0.845-1.64c-0.253-0.476-0.427-0.991-0.509-1.524l-0.284-1.813c-0.24-1.584-1.231-2.956-2.657-3.684l-1.643-0.823c-0.473-0.251-0.912-0.568-1.301-0.94l-1.299-1.34c-1.143-1.133-2.757-1.656-4.347-1.403l-1.8 0.3c-0.54 0.080-1.080 0.080-1.621 0l-1.805-0.3c-1.573-0.22-3.157 0.307-4.284 1.424l-1.301 1.301c-0.373 0.392-0.813 0.709-1.3 0.933l-1.643 0.821c-1.44 0.711-2.437 2.085-2.664 3.676l-0.28 1.809c-0.087 0.533-0.259 1.049-0.511 1.528l-0.861 1.64c-0.741 1.417-0.741 3.107 0 4.52l0.845 1.64c0.248 0.477 0.421 0.993 0.507 1.528l0.28 1.807c0.236 1.583 1.229 2.951 2.663 3.667l1.64 0.819c0.48 0.24 0.903 0.54 1.303 0.92l1.303 1.304c1.136 1.133 2.744 1.653 4.327 1.4l1.803-0.32c0.52-0.080 1.061-0.080 1.6 0l1.805 0.301c1.587 0.253 3.2-0.273 4.327-1.421l1.303-1.301c0.36-0.4 0.8-0.72 1.301-0.941l1.643-0.82c1.427-0.725 2.416-2.1 2.64-3.687l0.283-1.821c0.080-0.541 0.24-1.063 0.5-1.523l0.84-1.64c0.711-1.427 0.696-3.1-0.040-4.509zM14.059 5.845h-0.013c0.653-0.727 1.527-1.223 2.485-1.413 0.167-0.036 0.336-0.053 0.507-0.057 0.66-0.047 1.32 0.061 1.923 0.313 1.613 0.611 2.716 2.12 2.804 3.847l0.005 0.253c-0.013 2.451-1.995 4.435-4.445 4.447-0.24 0-0.48-0.020-0.72-0.060-0.844-0.147-1.629-0.531-2.264-1.107-0.861-0.753-1.381-1.824-1.44-2.968-0.060-1.195 0.357-2.365 1.16-3.253zM8.508 6.515l0.025-0.021c0.213-0.16 0.453-0.296 0.704-0.392 0.512-0.247 1.096-0.297 1.643-0.141 0.315 0.141 0.587 0.367 0.789 0.649 0.62 0.791 0.76 2.203 0.42 3.42-0.343 1.4-1.327 2.555-2.653 3.113 0.083 1.187 0.2 2.573 0.307 3.872-0.311 0.173-0.619 0.371-0.96 0.571-0.1 0.067-0.2 0.123-0.312 0.167-0.379-3.387-0.76-6.889-1.14-10.193 0.34-0.381 0.741-0.741 1.181-1.043zM6.407 21.707l-0.1-0.036c-0.16 0.22-0.343 0.42-0.543 0.62-0.060 0.061-0.12 0.12-0.2 0.14-0.040-0.061-0.080-0.14-0.1-0.22-0.22-0.44-0.42-0.88-0.64-1.323-0.021-0.080-0.101-0.179-0.101-0.2 0.080-0.099 0.16-0.2 0.261-0.28 0.627-0.663 1.013-1.515 1.101-2.421 0.019-0.56-0.061-1.143-0.261-1.663-0.16-0.5-0.36-0.981-0.58-1.44-0.341-0.703-0.701-1.324-0.701-2.284 0-1.583 0.781-2.631 1.883-3.196 0.2 0.593 0.34 1.219 0.54 1.84-0.501 0.364-0.64 1.073-0.56 1.867 0.093 0.579 0.267 1.14 0.52 1.669 0.253 0.515 0.447 1.053 0.58 1.613 0.36 1.847-0.037 3.76-1.101 5.312zM10.94 26.8c-1.497-0.733-2.883-1.613-3.96-2.8 0.92-1.52 1.724-3.107 2.405-4.751 0.76-1.768 1.276-3.635 1.528-5.544 0.58-0.2 1.2-0.341 1.781-0.537 0.040 0.027 0 0.112 0 0.169-0.1 0.421-0.2 0.8-0.32 1.243-0.34 1.341-0.8 2.703-1.24 4.005-0.623 1.741-1.344 3.423-2.064 5.027 0.821 0.68 1.701 1.28 2.663 1.781-0.236 0.48-0.503 0.94-0.8 1.383l0.007 0.023zM11.495 24.109l0.013 0.008-0.013-0.003v-0.005c-0.391-0.197-0.727-0.421-1.087-0.619 1.069-2.971 2.171-5.936 2.992-9.107 0.423 0.227 0.875 0.427 1.269 0.68-0.2 0.821-0.453 1.613-0.68 2.376-0.227 0.76-0.48 1.528-0.733 2.291-0.6 1.499-1.023 2.997-1.763 4.379zM17.841 27.168c-0.501 0.256-1.023 0.436-1.563 0.533-1.563 0.229-2.304-0.648-2.704-1.693-0.1-0.293-0.2-0.596-0.24-0.907-0.14-0.981-0.16-1.979-0.040-2.968 0.093-1.271 0.387-2.52 0.863-3.703 0.1-0.276 0.24-0.543 0.4-0.792 0.417-0.749 0.973-1.413 1.64-1.953 0.448-0.331 0.929-0.613 1.429-0.86-0.005-0.021-0.004-0.043-0.008-0.064l0.104 0.021h-0.027c-0.027 0.013-0.047 0.029-0.072 0.043 0.032 0.179 0.053 0.36 0.053 0.536 0.040 0.421 0.040 0.96 0.040 1.343-0.84 0.264-1.543 0.832-1.983 1.595-0.493 0.784-0.823 1.664-0.96 2.583-0.219 1.331-0.44 3.341 0.181 4.56 0.18 0.333 0.52 0.764 0.941 0.82 0.311 0.064 0.623-0.103 0.74-0.397 0.060-0.193 0.060-0.393 0.060-0.592v-1.752c-0.28 0-0.92 0.056-1.261 0.056 0.020-0.453 0-0.933 0.040-1.356 0.781-0.113 1.543-0.2 2.363-0.287v5.235zM22.905 25.639l0.067-0.084c-0.58-1.621-1.16-3.204-1.48-5.005-0.461 0.2-0.88 0.4-1.303 0.6 0.040 1.38 0 2.724-0.040 4.307 0 0.42-0.040 0.8-0.040 1.283-0.24 0.139-0.499 0.28-0.76 0.4-0.24 0.1-0.5 0.28-0.76 0.4 0-1.221 0-2.603 0.080-3.864 0.061-0.64 0.021-1.323 0.080-2.004 0.023-0.32 0.023-0.66 0.023-0.96 0-1.101-0.080-2.204-0.2-3.287-0.040-0.68-0.16-1.381-0.28-2.123 0.48-0.18 0.941-0.4 1.44-0.56 0.103 1.6 0.2 3.004 0.343 4.564 0.381-0.137 0.743-0.337 1.101-0.499-0.040-1.32-0.12-2.923-0.12-4.427-0.021-0.091-0.021-0.187 0-0.28 0.037-0.061 0.093-0.111 0.16-0.14 0.42-0.32 0.901-0.659 1.301-0.96-0.060 1.051-0.080 2.067-0.060 3.113 0.040 0.76 0.061 1.527 0.141 2.263 0.139 1.187 0.373 2.357 0.707 3.504 0.253 0.88 0.509 1.753 0.82 2.573-0.356 0.444-0.763 0.847-1.216 1.187zM26.735 12.896l0.099 0.103c-0.259 0.113-0.48 0.28-0.741 0.395-0.205-0.653-0.511-1.273-0.901-1.837-0.52 1.72-0.44 3.704-0.259 5.527 0.040 0.461 0.12 0.903 0.22 1.341 0.24 1.209 0.659 2.376 1.24 3.467-0.379 0.499-0.757 0.96-1.16 1.46-0.1-0.117-0.173-0.253-0.22-0.4-0.2-0.42-0.38-0.84-0.541-1.28-0.219-0.584-0.4-1.184-0.539-1.784-0.337-1.28-0.565-2.587-0.683-3.907-0.080-1.32-0.020-2.643 0.2-3.964 0.1-0.68 0.24-1.301 0.421-1.963 0.040-0.12 0.080-0.24 0.099-0.36-0.060-0.12-0.12-0.2-0.2-0.301-0.36-0.461-0.7-0.821-1.101-1.24-0.080-0.083-0.16-0.163-0.26-0.223-0.080-0.080-0.16-0.141-0.24-0.221 0.040-0.117 0.101-0.227 0.18-0.32 0.2-0.32 0.44-0.621 0.68-0.903h0.023c0.98 0.56 1.903 1.603 2.623 2.604 0.765 1.051 1.367 2.213 1.783 3.444-0.24 0.101-0.46 0.221-0.72 0.36z"></path>
</svg>
