<!-- Generated by IcoMoon.io -->
<svg version="1.1" xmlns="http://www.w3.org/2000/svg" width="32" height="32" viewBox="0 0 32 32">
<title>stumbleupon</title>
<path fill="#eb4924" d="M16 0c-8.84 0-16 7.164-16 16 0 8.84 7.16 16 16 16s16-7.16 16-16c0-8.836-7.16-16-16-16zM15.176 11.876v6.599c0 2.472-2.256 4.335-4.6 4.335-2.192 0-4.24-1.035-4.472-3.512v-4.137h3.3v3.3c0 0.82 0.581 0.955 1.171 0.955 0.585 0 1.3-0.132 1.3-0.956v-6.6c0.067-2.457 2.107-4.019 4.387-4.019 2.325 0 3.865 1.759 3.865 4.021v1.4l-1.637 0.78-1.664-0.78v-2.209s-0.219-0.24-0.56-0.24c-0.565 0-1.088 0.24-1.089 1.064zM25.896 18.475c0 2.472-2.12 4.148-4.471 4.148-2.348 0-4.6-1.676-4.6-4.149v-3.3h3.301v3.3c0 0.824 0.713 0.956 1.3 0.956s1.172-0.132 1.172-0.956v-3.3h3.281v3.3l0.016 0.001z"></path>
</svg>
