<!-- Generated by IcoMoon.io -->
<svg version="1.1" xmlns="http://www.w3.org/2000/svg" width="32" height="32" viewBox="0 0 32 32">
<title>styleshare</title>
<path d="M16 0c8.833 0 16 7.164 16 16s-7.167 16-16 16c-8.833 0-16-7.164-16-16s7.167-16 16-16zM17.996 14.22c0.248 0.204 0.565 0.327 0.913 0.327 0.804 0 1.456-0.652 1.456-1.456s-0.652-1.456-1.456-1.456c-0.804 0-1.456 0.652-1.456 1.456v0c0 0.347 0.12 0.665 0.324 0.913l-1.78 1.78-1.777-1.784c0.204-0.248 0.327-0.565 0.327-0.913-0.001-0.803-0.653-1.454-1.456-1.454s-1.456 0.652-1.456 1.456 0.652 1.456 1.456 1.456c0.347 0 0.666-0.121 0.916-0.324l-0.003 0.002 1.78 1.78-1.78 1.779c-0.247-0.199-0.564-0.32-0.91-0.32-0.001 0-0.002 0-0.004 0h0c-0.78 0.034-1.399 0.675-1.399 1.46s0.619 1.426 1.396 1.46l0.003 0c0.804 0 1.456-0.64 1.456-1.44 0-0.339-0.12-0.659-0.324-0.899l1.78-1.8 1.779 1.78c-0.2 0.26-0.32 0.58-0.32 0.92 0 0.8 0.661 1.459 1.461 1.459s1.46-0.64 1.46-1.44c0-0.002 0-0.005 0-0.007 0-0.792-0.642-1.435-1.435-1.435-0.344 0-0.661 0.121-0.908 0.324l0.003-0.002-1.823-1.841 1.78-1.78z"></path>
</svg>
