<!-- Generated by IcoMoon.io -->
<svg version="1.1" xmlns="http://www.w3.org/2000/svg" width="32" height="32" viewBox="0 0 32 32">
<title>travisci</title>
<path fill="#39a85b" d="M20.059 16.56l0.020 0.013c0.16 0 0.3-0.141 0.28-0.301 0-0.163-0.133-0.293-0.293-0.293h-0.008c-0.163-0.003-0.296 0.125-0.301 0.287v0.013c0 0.16 0.141 0.299 0.301 0.28zM12.307 16.2h-0.023c-0.163 0-0.293 0.136-0.289 0.297v0.009c0.003 0.163 0.139 0.293 0.303 0.291h0.004c0.168-0.003 0.303-0.14 0.301-0.307-0.003-0.164-0.133-0.293-0.297-0.293zM13.685 20.9l2.387 0.181 2.22-0.469c0.16-0.032 0.32 0 0.453 0.093l1.637 1.12 1.68 0.157c0.18-0.4 0.32-0.84 0.419-1.28h-0.080l-4.56-0.619c-0.217-0.027-0.403-0.173-0.48-0.38l-0.819-2.36c-0.1-0.061-0.62-0.021-0.86 0.099l-0.84 2.28c-0.057 0.196-0.22 0.344-0.42 0.381l-4.54 1.060c0.16 0.541 0.38 1.061 0.64 1.581l1.36-0.38-0.044-0.051 1.405-1.259c0.12-0.111 0.28-0.165 0.44-0.151z"></path>
<path fill="#39a85b" d="M22.524 23.16l-0.104 0.045-2.307-0.227c-0.093-0.021-0.184-0.053-0.269-0.1l-1.54-1.061-2.040 0.42c-0.060 0-0.1 0.017-0.16 0l-2.22-0.183-1.32 1.181c-0.061 0.056-0.137 0.097-0.22 0.12l-2.38 0.68c-0.099 0.019-0.2 0.019-0.3 0l1.4 1.579 4.66-0.66 0.4-0.821c0.080-0.151 0.217-0.267 0.38-0.32 0.164-0.043 0.339-0.013 0.48 0.080l1.76 1.181 3.92-0.9 0.84-1.34-0.701 0.28c-0.1 0.019-0.18 0.040-0.28 0.040zM16.557 25.797l0.003 0.016c-0.089 0.173-0.256 0.293-0.448 0.32l-1.493 0.211c0.471 0.14 0.96 0.213 1.469 0.213 0.676-0.003 1.347-0.139 1.969-0.4l-1.26-0.84-0.24 0.48zM8.137 15.711h0.003l0.56 3.253 1.24 0.939 3.887-0.9 0.78-2.196c0.043-0.111 0.117-0.208 0.213-0.28 0.067-0.045 0.671-0.467 1.42-0.467 0.88 0 1.264 0.568 1.307 0.636l0.783 2.235 3.973 0.544 1.233-0.853 0.82-2.848c-5.299-1.2-10.92-1.219-16.219-0.063zM12.137 18.164l0.003-0.013h-0.36c-0.565 0-0.931-0.024-1.253 0.147 0.013-0.023 0.156-0.333 0.661-0.463-0.067-0.173-0.099-0.356-0.099-0.539-0.035-0.915 0.533-1.667 1.116-1.675 0.584 0 0.989 0.74 1 1.66 0.008 0.923-0.48 0.863-1.067 0.883zM20.124 15.377v0.023c0.587-0.020 1.12 0.7 1.189 1.621 0.027 0.193 0 0.389-0.067 0.571 0.537-0.063 0.667 0.307 0.667 0.325-0.392-0.2-0.824 0.040-1.605 0.063-0.589 0.020-1.075 0.020-1.111-0.901-0.033-0.92 0.347-1.68 0.928-1.701z"></path>
<path fill="#39a85b" d="M16 0c-8.836 0-16 7.164-16 16s7.164 16 16 16 16-7.164 16-16-7.164-16-16-16zM26.797 13.84c-0.080 0.76-0.26 1.419-0.56 1.939-0.139 0.24-0.4 0.34-0.659 0.28l-0.060-0.020h-0.023l-0.060-0.021-0.86 3.059c-0.040 0.143-0.125 0.267-0.24 0.36l-0.621 0.44v0.18c-0.080 0.52-0.2 1.040-0.34 1.54l1.181-0.44c0.24-0.1 0.499-0.020 0.68 0.18 0.163 0.196 0.179 0.476 0.040 0.693l-1.88 3.037c-0.080 0.133-0.209 0.227-0.36 0.267l-2.32 0.539c-1.32 1.167-2.94 1.867-4.64 1.867l-0.076-0.077h-0.013c-1.317 0-2.537-0.413-3.597-1.093l-1.66 0.232h-0.080c-0.169 0-0.329-0.060-0.449-0.2l-3.36-3.76c-0.183-0.207-0.2-0.512-0.040-0.739 0.167-0.22 0.461-0.304 0.72-0.2l1.48 0.621c-0.316-0.68-0.543-1.42-0.676-2.14-0.007-0.067-0.007-0.133 0-0.2l-0.68-0.52c-0.128-0.080-0.208-0.22-0.227-0.38l-0.573-3.38-0.453 0.12c-0.053 0.020-0.099 0.020-0.16 0.020-0.207-0.004-0.396-0.12-0.499-0.3-0.301-0.52-0.493-1.16-0.56-1.94-0.083-0.82-0.029-1.5 0.171-2 0.051-0.156 0.168-0.28 0.32-0.34 0.516-0.22 1.040-0.4 1.576-0.58 0.78-3.7 4.457-6.463 8.737-6.463s7.96 2.76 8.74 6.48c0.52 0.18 1.040 0.36 1.56 0.58 0.157 0.059 0.283 0.183 0.34 0.341 0.2 0.517 0.26 1.197 0.18 2.017z"></path>
<path fill="#39a85b" d="M24.217 12.123l0.1-0.099h-0.019c-0.131 0-0.256-0.040-0.36-0.115-1.553-0.483-3.147-0.82-4.76-1.007-0.309-0.019-0.544-0.284-0.527-0.592 0-0.016 0-0.032 0.004-0.048 0.017-0.136 0.080-0.251 0.168-0.343-0.071 0.027-0.147 0.045-0.227 0.045h-1.099v0.9c0.28 0.059 0.48 0.299 0.48 0.579l-0.044-0.033v1.475c0 0.325-0.28 0.592-0.6 0.592h-2.415c-0.32 0-0.587-0.28-0.587-0.6v-1.477c0-0.285 0.2-0.52 0.467-0.58v-0.88h-1.099c-0.324-0.004-0.583-0.271-0.579-0.595v-1.952c0-0.327 0.28-0.591 0.6-0.591h4.877c0.327 0 0.592 0.28 0.592 0.6v1.96c0 0.167-0.067 0.315-0.171 0.423 0.088-0.035 0.187-0.056 0.297-0.044 1.4 0.18 2.777 0.44 4.12 0.82-0.943-2.84-3.943-4.88-7.4-4.88-3.463 0-6.463 2.040-7.4 4.9 1.217-0.34 2.48-0.58 3.737-0.76 0.34-0.040 0.62 0.2 0.66 0.52s-0.2 0.62-0.52 0.66c-1.52 0.2-3 0.539-4.44 0.979-0.059 0.040-0.129 0.061-0.2 0.060-0.5 0.16-0.98 0.341-1.48 0.541-0.060 0.28-0.080 0.68-0.020 1.26 0.040 0.421 0.12 0.76 0.24 1.080 6.165-1.539 12.613-1.539 18.78 0 0.1-0.299 0.181-0.659 0.22-1.059 0.040-0.5 0.040-0.92-0.040-1.24-0.449-0.173-0.903-0.341-1.36-0.499z"></path>
<path fill="#39a85b" d="M18.827 9.92c0.075-0.032 0.14-0.077 0.195-0.133-0.076 0.029-0.14 0.075-0.195 0.133zM14.3 8.756h0.2c0.009-0.317 0.271-0.571 0.587-0.569h0.313c0.328 0 0.595 0.267 0.595 0.592v2.621c0 0.284-0.2 0.52-0.48 0.58v0.307h1.24v-0.307c-0.277-0.056-0.475-0.299-0.473-0.58v-2.62c0-0.328 0.28-0.595 0.6-0.595h0.32c0.32 0 0.583 0.253 0.6 0.569h0.179v-0.773h-3.68v0.773z"></path>
</svg>
