<!-- Generated by IcoMoon.io -->
<svg version="1.1" xmlns="http://www.w3.org/2000/svg" width="32" height="32" viewBox="0 0 32 32">
<title>uber</title>
<path d="M15.96 0.008c-0 0-0.001 0-0.002 0-8.269 0-15.073 6.276-15.907 14.325l-0.006 0.069h11.115v-2.4c0.001-0.441 0.359-0.799 0.8-0.799 0 0 0 0 0 0h7.996c0.445 0 0.8 0.357 0.8 0.8v7.996c0 0 0 0 0 0 0 0.441-0.357 0.799-0.799 0.8h-8c-0.441-0.001-0.797-0.358-0.797-0.799 0-0 0-0.001 0-0.001v0-2.399h-11.113c0.884 8.789 8.724 15.196 17.512 14.313 8.789-0.884 15.196-8.724 14.312-17.512-0.839-8.117-7.642-14.393-15.911-14.393h-0z"></path>
</svg>
