<!-- Generated by IcoMoon.io -->
<svg version="1.1" xmlns="http://www.w3.org/2000/svg" width="32" height="32" viewBox="0 0 32 32">
<title>unsplash</title>
<path d="M20.8 18.1c0 2.7-2.2 4.8-4.8 4.8s-4.8-2.1-4.8-4.8c0-2.7 2.2-4.8 4.8-4.8 2.7 0.1 4.8 2.2 4.8 4.8zM32 10.7v14.9c0 2.3-1.9 4.3-4.3 4.3h-23.4c-2.4 0-4.3-1.9-4.3-4.3v-15c0-2.3 1.9-4.3 4.3-4.3h3.7l0.8-2.3c0.4-1.1 1.7-2 2.9-2h8.6c1.2 0 2.5 0.9 2.9 2l0.8 2.4h3.7c2.4 0 4.3 1.9 4.3 4.3zM23.4 18.2c0-4.1-3.3-7.5-7.5-7.5-4.1 0-7.5 3.4-7.5 7.5s3.3 7.5 7.5 7.5c4.2-0.1 7.5-3.4 7.5-7.5z"></path>
</svg>
