<!-- Generated by IcoMoon.io -->
<svg version="1.1" xmlns="http://www.w3.org/2000/svg" width="32" height="32" viewBox="0 0 32 32">
<title>viber</title>
<path fill="#665cac" d="M336.627-337.16c-22.093-20.32-111.307-85.093-310.053-85.973 0 0-234.387-14.133-348.627 90.68-63.6 63.6-85.987 156.653-88.333 272.067-2.36 115.427-5.427 331.667 203.053 390.32l0.2 0.053-0.133 89.467s-1.307 36.24 22.52 43.627c28.853 8.96 45.787-18.587 73.333-48.253 15.133-16.293 36-40.227 51.733-58.52 142.587 11.947 252.24-15.427 264.68-19.467 28.8-9.373 191.693-30.227 218.187-246.467 27.333-222.947-13.253-363.933-86.56-427.533zM360.773 74.267c-22.4 180.56-154.467 191.96-178.827 199.773-10.36 3.333-106.693 27.293-227.787 19.387 0 0-90.24 108.853-118.4 137.173-4.413 4.427-9.587 6.213-13.040 5.373-4.853-1.2-6.2-6.933-6.133-15.333 0.080-12 0.76-148.693 0.76-148.693-0.133-0.040-0.093-0.027-0.027 0-176.307-49-166.027-233.067-164.040-329.453 2-96.373 20.107-175.347 73.907-228.453 96.64-87.533 295.72-74.453 295.72-74.453 168.107 0.733 248.68 51.36 267.36 68.32 62.013 53.107 93.627 180.187 70.507 366.347z"></path>
<path fill="#665cac" d="M27.747 3.12c-0.8-0.733-4-3.067-11.16-3.093 0 0-8.44-0.507-12.56 3.267-2.293 2.28-3.093 5.64-3.187 9.8-0.080 4.147-0.173 11.933 7.333 14.053v3.227s-0.053 1.293 0.8 1.56c1.053 0.333 1.653-0.667 2.653-1.733l1.867-2.107c5.133 0.427 9.067-0.56 9.52-0.707 1.040-0.333 6.907-1.080 7.867-8.867 0.987-8.040-0.48-13.107-3.12-15.4zM28.627 17.933c-0.8 6.507-5.56 6.92-6.44 7.2-0.373 0.12-3.84 0.973-8.2 0.693 0 0-3.253 3.92-4.267 4.933-0.16 0.173-0.347 0.227-0.467 0.2-0.173-0.040-0.227-0.253-0.213-0.547l0.027-5.36c-6.36-1.76-5.987-8.4-5.92-11.867 0.080-3.467 0.733-6.307 2.667-8.227 3.48-3.147 10.653-2.667 10.653-2.667 6.053 0.013 8.947 1.84 9.627 2.453 2.227 1.907 3.373 6.48 2.533 13.2z"></path>
<path fill="#665cac" d="M19.533 13.307c-0 0-0 0-0 0-0.216 0-0.392-0.172-0.4-0.386l-0-0.001c-0.080-1.373-0.72-2.040-2.040-2.107-0.216-0.011-0.387-0.189-0.387-0.407 0-0.225 0.182-0.407 0.407-0.407 0.007 0 0.014 0 0.021 0.001l-0.001-0c1.733 0.093 2.707 1.093 2.8 2.88 0.001 0.008 0.001 0.017 0.001 0.027 0 0.217-0.172 0.393-0.387 0.4l-0.001 0h-0.013z"></path>
<path fill="#665cac" d="M21.6 14c-0.221 0-0.4-0.179-0.4-0.4v0c0.006-0.087 0.009-0.19 0.009-0.292 0-1.208-0.459-2.309-1.213-3.138l0.003 0.004c-0.898-0.926-2.145-1.508-3.529-1.533l-0.005-0c-0.21-0.014-0.374-0.188-0.374-0.4 0-0.221 0.179-0.401 0.401-0.401 0.009 0 0.019 0 0.028 0.001l-0.001-0c1.733 0.12 3.093 0.72 4.067 1.787s1.467 2.4 1.427 3.987c0 0.221-0.179 0.4-0.4 0.4v0z"></path>
<path fill="#665cac" d="M23.733 14.84c-0.221 0-0.4-0.179-0.4-0.4v0c-0.027-2.48-0.733-4.373-2.187-5.787-1.35-1.312-3.195-2.121-5.23-2.121-0.051 0-0.101 0-0.151 0.002l0.008-0c-0.221 0-0.4-0.179-0.4-0.4v0c0-0.227 0.187-0.4 0.4-0.4 2.36 0 4.36 0.8 5.947 2.347 1.498 1.546 2.421 3.656 2.421 5.982 0 0.128-0.003 0.256-0.008 0.383l0.001-0.018c0 0.221-0.179 0.4-0.4 0.4v0zM17.2 18.32s0.56 0.053 0.867-0.32l0.6-0.76c0.28-0.373 0.973-0.6 1.653-0.227 1.084 0.633 2.022 1.311 2.887 2.071l-0.020-0.018c0.44 0.373 0.547 0.92 0.24 1.493v0.013c-0.307 0.547-0.72 1.067-1.24 1.533-0.39 0.354-0.898 0.584-1.458 0.626l-0.008 0c-0.173 0-0.347-0.027-0.533-0.080v-0.013c-0.64-0.187-1.707-0.64-3.467-1.6-1.612-0.902-3.004-1.932-4.249-3.115l0.009 0.008-0.080-0.080-0.053-0.040-0.040-0.053c-1.172-1.231-2.198-2.619-3.040-4.123l-0.053-0.104c-0.602-0.991-1.142-2.136-1.561-3.338l-0.039-0.128-0.027-0.013c-0.051-0.152-0.080-0.327-0.080-0.509 0-0.074 0.005-0.148 0.014-0.22l-0.001 0.008c0.053-0.413 0.253-0.84 0.613-1.267 0.48-0.533 0.987-0.933 1.533-1.253h0.013c0.573-0.307 1.12-0.2 1.493 0.24 0.743 0.844 1.422 1.782 2.007 2.782l0.046 0.085c0.387 0.68 0.133 1.373-0.227 1.667l-0.747 0.6c-0.387 0.293-0.333 0.867-0.333 0.867s1.107 4.213 5.267 5.28z"></path>
</svg>
