<!-- Generated by IcoMoon.io -->
<svg version="1.1" xmlns="http://www.w3.org/2000/svg" width="32" height="32" viewBox="0 0 32 32">
<title>webstorm</title>
<path fill="#00cdd7" d="M6.2 25.801h19.6v-19.601h-19.6v19.601zM15.401 23.5h-7.5v-1.26h7.5v1.26zM20.901 8.44c1.099 0 2.197 0.4 3.039 1.060l-0.94 1.4c-0.599-0.479-1.34-0.76-2.099-0.8-0.661 0-1.061 0.3-1.061 0.76 0 0.539 0.361 0.74 1.759 1.080 1.641 0.46 2.601 1.060 2.601 2.5 0 1.66-1.26 2.6-3 2.6-1.281-0.040-2.521-0.521-3.5-1.34l1.039-1.301c0.76 0.6 1.5 1 2.461 1 0.74 0 1.2-0.3 1.2-0.8 0-0.461-0.303-0.7-1.64-1.060-1.661-0.44-2.72-0.901-2.72-2.54v-0.059c0-1.5 1.2-2.5 2.861-2.5zM9.401 8.6l1.259 4.8 1.4-4.8h1.4l1.401 4.8 1.239-4.8h1.961l-2.4 8.3h-1.561l-1.339-4.8-1.36 4.8h-1.54l-2.401-8.3h1.941z"></path>
<path fill="#00cdd7" d="M32 10.84l-2.559-6.34-1.601-3.84-7.439-0.66-1.161 1.12-1.48-0.56-4.7 2.5-5.060-3-8 3.28 4.3 25.561 17.7 3.099 1.12-5.68 0.2-0.121h-17.52v-20.399h20.4v18.7l5.8-3.44-3.5-6.56z"></path>
</svg>
